<?xml version="1.0" standalone="no"?>
<!DOCTYPE svg PUBLIC "-//W3C//DTD SVG 1.1//EN"
"http://www.w3.org/Graphics/SVG/1.1/DTD/svg11.dtd">

<svg height="48" transform="translate(0.5,0.5)" version="1.1" width="22" xmlns="http://www.w3.org/2000/svg" xmlns:nch="http://www.nchsoftware.com/drawpad/" xmlns:xlink="http://www.w3.org/1999/xlink"><rect fill="rgb(0,0,0, 0)" fill-opacity="1.000" height="48" id="background" width="22" x="0" y="0"/><g class="Layer"><path d="M21,15 C21,15 14,15 14,15 C14,15 14,11 14,11 C14,9 15,8 16,8 C16,8 21,8 21,8 C21,8 21,0 21,0 C21,0 14,0 14,0 C6,0 5,6 5,10 C5,10 5,15 5,15 C5,15 0,15 0,15 C0,15 0,24 0,24 C0,24 5,24 5,24 C5,24 5,47 5,47 C5,47 14,47 14,47 C14,47 14,24 14,24 C14,24 21,24 21,24 C21,24 21,15 21,15 C21,15 21,15 21,15" fill="rgb(255,255,255)" fill-opacity="1.000" fill-rule="evenodd" nch:path="21.4,15.4,21.4,15.4,14.1,15.4 14.1,15.4,14.1,15.4,14.1,10.5 14.1,10.5,14.1,8.7,15.3,8.2 16.2,8.2,16.2,8.2,21.3,8.2 21.3,8.2,21.3,8.2,21.3,0.1 21.3,0.1,21.3,0.1,14.2,0.1 14.2,0.1,6.3,0.1,4.5,6.1 4.5,10.0,4.5,10.0,4.5,15.4 4.5,15.4,4.5,15.4,-0.0,15.4 -0.0,15.4,-0.0,15.4,-0.0,23.8 -0.0,23.8,-0.0,23.8,4.5,23.8 4.5,23.8,4.5,23.8,4.5,47.4 4.5,47.4,4.5,47.4,14.1,47.4 14.1,47.4,14.1,47.4,14.1,23.8 14.1,23.8,14.1,23.8,20.6,23.8 20.6,23.8,20.6,23.8,21.4,15.4 21.4,15.4,21.4,15.4,21.4,15.4 21.4,15.4," nch:penfill="rgba(255,255,255,255)" stroke="rgb(255,255,255,0)" stroke-width="0"/></g></svg>