<?xml version="1.0" standalone="no"?>
<!DOCTYPE svg PUBLIC "-//W3C//DTD SVG 1.1//EN"
"http://www.w3.org/Graphics/SVG/1.1/DTD/svg11.dtd">

<svg height="50" transform="translate(0.5,0.5)" version="1.1" width="50" xmlns="http://www.w3.org/2000/svg" xmlns:nch="http://www.nchsoftware.com/drawpad/" xmlns:xlink="http://www.w3.org/1999/xlink"><rect fill="rgb(0,0,0, 0)" fill-opacity="1.000" height="50" id="background" width="50" x="0" y="0"/><g class="Layer"><path d="M25,35 C21,35 17,31 17,27 C17,22 21,18 25,18 C30,18 33,22 33,27 C33,31 30,35 25,35 C25,35 25,35 25,35M25,14 C18,14 12,19 12,27 C12,34 18,39 25,39 C32,39 38,34 38,27 C38,20 32,14 25,14 C25,14 25,14 25,14" fill="rgb(255,255,255)" fill-opacity="1.000" fill-rule="evenodd" nch:path="25.2,34.7,20.7,34.7,17.0,31.0 17.0,26.5,17.0,22.0,20.7,18.3 25.2,18.3,29.7,18.3,33.4,22.0 33.4,26.5,33.4,31.0,29.7,34.7 25.2,34.7,25.2,34.7,25.2,34.7 25.2,34.7,20.7,34.7,25.2,13.7 M25.2,13.7,18.2,13.7,12.4,19.4 12.4,26.5,12.4,33.6,18.1,39.3 25.2,39.3,32.3,39.3,38.0,33.5 38.0,26.5,38.0,19.5,32.2,13.7 25.2,13.7,25.2,13.7,25.2,13.7 25.2,13.7," nch:penfill="rgba(255,255,255,255)" stroke="rgb(255,255,255,0)" stroke-width="0"/><ellipse cx="39" cy="13" fill="rgb(255,255,255)" fill-opacity="1.000" nch:colorstroke="rgba(0,0,0,255)" rx="3" ry="3" stroke="rgb(0,0,0)" stroke-opacity="1.000" stroke-width="0"/><path d="M45,35 C45,38 44,41 42,42 C40,44 38,45 35,45 C35,45 15,45 15,45 C12,45 9,44 7,42 C5,41 5,38 5,35 C5,35 5,14 5,14 C5,11 5,9 7,7 C9,5 12,5 15,5 C15,5 35,5 35,5 C38,5 41,5 42,7 C44,9 45,12 45,14 C45,14 45,35 45,35 C45,35 45,35 45,35M46,4 C43,1 39,0 35,0 C35,0 14,0 14,0 C6,0 0,6 0,14 C0,14 0,35 0,35 C0,39 1,43 4,46 C7,48 10,50 15,50 C15,50 35,50 35,50 C39,50 43,48 45,46 C48,43 50,39 50,35 C50,35 50,14 50,14 C50,10 48,7 46,4 C46,4 46,4 46,4" fill="rgb(255,255,255)" fill-opacity="1.000" fill-rule="evenodd" nch:path="45.2,35.1,45.2,38.2,44.1,40.7 42.3,42.4,40.5,44.1,38.0,45.0 35.0,45.0,35.0,45.0,14.6,45.0 14.6,45.0,11.6,45.0,9.1,44.1 7.3,42.4,5.5,40.6,4.6,38.1 4.6,35.0,4.6,35.0,4.6,14.5 4.6,14.5,4.6,11.5,5.5,9.0 7.3,7.2,9.0,5.5,11.6,4.6 14.6,4.6,14.6,4.6,35.2,4.6 35.2,4.6,38.2,4.6,40.7,5.5 42.5,7.3,44.2,9.1,45.2,11.6 45.2,14.5,45.2,14.5,45.2,35.1 45.2,35.1,45.2,35.1,45.2,35.1 45.2,35.1,45.2,38.2,45.6,4.1 M45.6,4.1,43.0,1.4,39.3,-0.0 35.1,-0.0,35.1,-0.0,14.5,-0.0 14.5,-0.0,5.8,-0.0,-0.0,5.8 -0.0,14.5,-0.0,14.5,-0.0,35.0 -0.0,35.0,-0.0,39.3,1.4,43.0 4.2,45.7,6.9,48.3,10.5,49.6 14.6,49.6,14.6,49.6,35.0,49.6 35.0,49.6,39.3,49.6,42.9,48.2 45.5,45.7,48.2,43.1,49.6,39.4 49.6,35.1,49.6,35.1,49.6,14.5 49.6,14.5,49.6,10.3,48.2,6.7 45.6,4.1,45.6,4.1,45.6,4.1 45.6,4.1," nch:penfill="rgba(255,255,255,255)" stroke="rgb(255,255,255,0)" stroke-width="0"/></g></svg>